<svg width="24" height="24" viewBox="0 0 24 24" fill="none" xmlns="http://www.w3.org/2000/svg">
<rect width="24" height="24" rx="5" fill="#7359F8"/>
<path d="M14 4H9.99999C9.44773 4 9 4.39797 9 4.88888V19.111C9 19.6017 9.44773 20 9.99999 20H14C14.5523 20 15 19.6017 15 19.111V4.88888C15 4.39797 14.5523 4 14 4Z" fill="#282A36"/>
<path d="M4.11893 9.99969L4.02378 13.9986C4.01065 14.5507 4.39785 15.0078 4.88862 15.0194L19.1067 15.3577C19.5973 15.3694 20.0061 14.9312 20.0193 14.3791L20.1144 10.3803C20.1275 9.82815 19.74 9.37107 19.2494 9.3594L5.03133 9.02113C4.54056 9.00945 4.13206 9.44759 4.11893 9.99969Z" fill="#282A36"/>
</svg>
