<svg width="498" height="116" viewBox="0 0 498 116" fill="none" xmlns="http://www.w3.org/2000/svg">
<g clip-path="url(#clip0_13_2)">
<path d="M120 0H60C26.8629 0 0 24.6243 0 55C0 85.376 26.8629 110 60 110H120C153.137 110 180 85.376 180 55C180 24.6243 153.137 0 120 0Z" fill="#5B5F75"/>
<path d="M66.8889 49.1072H33.1111C31.9452 49.1072 31 50.1332 31 51.3988V60.5655C31 61.8312 31.9452 62.8572 33.1111 62.8572H66.8889C68.0548 62.8572 69 61.8312 69 60.5655V51.3988C69 50.1332 68.0548 49.1072 66.8889 49.1072Z" fill="#282A36"/>
<path d="M54.6667 36.3392H45.3333C44.0447 36.3392 43 37.2675 43 38.4126V71.5873C43 72.732 44.0447 73.661 45.3333 73.661H54.6667C55.9553 73.661 57 72.732 57 71.5873V38.4126C57 37.2675 55.9553 36.3392 54.6667 36.3392Z" fill="#282A36"/>
<path d="M129 46C133.971 46 138 41.9706 138 37C138 32.0294 133.971 28 129 28C124.029 28 120 32.0294 120 37C120 41.9706 124.029 46 129 46Z" fill="#7359F8"/>
<path d="M150 67C154.971 67 159 62.9706 159 58C159 53.0294 154.971 49 150 49C145.029 49 141 53.0294 141 58C141 62.9706 145.029 67 150 67Z" fill="#7359F8"/>
<path d="M129 90C133.971 90 138 85.971 138 81C138 76.029 133.971 72 129 72C124.029 72 120 76.029 120 81C120 85.971 124.029 90 129 90Z" fill="#7359F8"/>
<path d="M106 67C110.971 67 115 62.9706 115 58C115 53.0294 110.971 49 106 49C101.029 49 97 53.0294 97 58C97 62.9706 101.029 67 106 67Z" fill="#7359F8"/>
<path d="M200.94 93V75.73L239.33 46.0299H200.94V29.2H265.62V46.47L227.23 76.1698H265.62V93H200.94ZM290.574 93C287.714 93 285.074 92.267 282.654 90.8C280.234 89.333 278.29 87.39 276.824 84.97C275.357 82.55 274.624 79.91 274.624 77.05V45.15C274.624 42.29 275.357 39.65 276.824 37.2299C278.29 34.8099 280.234 32.8666 282.654 31.4C285.074 29.9333 287.714 29.2 290.574 29.2H323.354C326.287 29.2 328.964 29.9333 331.384 31.4C333.804 32.8666 335.71 34.8099 337.104 37.2299C338.57 39.65 339.304 42.29 339.304 45.15V69.57H291.454V76.1698H339.304V93H290.574ZM291.454 54.83H322.474V46.0299H291.454V54.83ZM443.002 115.88V98.94H480.842V93H448.942C446.008 93 443.332 92.267 440.912 90.8C438.492 89.333 436.548 87.39 435.082 84.97C433.615 82.55 432.882 79.91 432.882 77.05V29.4199H449.712V76.1698H480.842V29.4199H497.672V99.9299C497.672 102.863 496.938 105.54 495.472 107.96C494.078 110.38 492.172 112.287 489.752 113.68C487.332 115.147 484.655 115.88 481.722 115.88H443.002Z" fill="#5B5F75"/>
<path d="M350.696 93V87L374.696 57.6L350.696 29.4V23.4H369.536L386.576 43.56L403.496 23.4H422.456V29.4L398.456 57.6L422.456 87V93H403.616L386.576 72.12L369.536 93H350.696Z" fill="#66F859"/>
</g>
<defs>
<clipPath id="clip0_13_2">
<rect width="498" height="116" fill="white"/>
</clipPath>
</defs>
</svg>
