<svg width="369" height="120" viewBox="0 0 369 120" fill="none" xmlns="http://www.w3.org/2000/svg">
<g filter="url(#filter0_d_19_204)">
<path d="M224.804 102C252.694 102 275.304 79.6142 275.304 52C275.304 24.3858 252.694 2 224.804 2C196.913 2 174.304 24.3858 174.304 52C174.304 79.6142 196.913 102 224.804 102Z" fill="#7359F8"/>
<mask id="mask0_19_204" style="mask-type:luminance" maskUnits="userSpaceOnUse" x="190" y="17" width="33" height="32">
<path d="M190.304 17H222.114V48.8099H190.304V17Z" fill="white"/>
</mask>
<g mask="url(#mask0_19_204)">
<mask id="mask1_19_204" style="mask-type:luminance" maskUnits="userSpaceOnUse" x="170" y="-3" width="110" height="110">
<path d="M225.304 -2.46924L279.78 52.0068L225.304 106.483L170.827 52.0068L225.304 -2.46924Z" fill="white"/>
</mask>
<g mask="url(#mask1_19_204)">
<mask id="mask2_19_204" style="mask-type:luminance" maskUnits="userSpaceOnUse" x="170" y="-3" width="110" height="110">
<path d="M225.304 -2.46924L279.78 52.0068L225.304 106.483L170.827 52.0068L225.304 -2.46924Z" fill="white"/>
</mask>
<g mask="url(#mask2_19_204)">
<path d="M222.094 48.7904V30.6346L209.416 17.9568C208.169 16.7092 206.126 16.7089 204.878 17.9568L191.26 31.5742C190.012 32.8221 190.013 34.8654 191.26 36.1126L203.938 48.7904H222.094Z" fill="#F8F8F2"/>
</g>
</g>
</g>
<mask id="mask3_19_204" style="mask-type:luminance" maskUnits="userSpaceOnUse" x="228" y="17" width="33" height="32">
<path d="M228.494 17H260.304V48.8099H228.494V17Z" fill="white"/>
</mask>
<g mask="url(#mask3_19_204)">
<mask id="mask4_19_204" style="mask-type:luminance" maskUnits="userSpaceOnUse" x="170" y="-3" width="110" height="110">
<path d="M225.304 -2.46924L279.78 52.0068L225.304 106.483L170.827 52.0068L225.304 -2.46924Z" fill="white"/>
</mask>
<g mask="url(#mask4_19_204)">
<mask id="mask5_19_204" style="mask-type:luminance" maskUnits="userSpaceOnUse" x="170" y="-3" width="110" height="110">
<path d="M225.304 -2.46924L279.78 52.0068L225.304 106.483L170.827 52.0068L225.304 -2.46924Z" fill="white"/>
</mask>
<g mask="url(#mask5_19_204)">
<path d="M228.514 48.7904H246.67L259.348 36.1126C260.595 34.8654 260.596 32.8221 259.348 31.5742L245.73 17.9568C244.482 16.7089 242.439 16.7092 241.192 17.9568L228.514 30.6346V48.7904Z" fill="#F8F8F2"/>
</g>
</g>
</g>
<mask id="mask6_19_204" style="mask-type:luminance" maskUnits="userSpaceOnUse" x="228" y="55" width="33" height="32">
<path d="M228.494 55.1902H260.304V87H228.494V55.1902Z" fill="white"/>
</mask>
<g mask="url(#mask6_19_204)">
<mask id="mask7_19_204" style="mask-type:luminance" maskUnits="userSpaceOnUse" x="170" y="-3" width="110" height="110">
<path d="M225.304 -2.46924L279.78 52.0068L225.304 106.483L170.827 52.0068L225.304 -2.46924Z" fill="white"/>
</mask>
<g mask="url(#mask7_19_204)">
<mask id="mask8_19_204" style="mask-type:luminance" maskUnits="userSpaceOnUse" x="170" y="-3" width="110" height="110">
<path d="M225.304 -2.46924L279.78 52.0068L225.304 106.483L170.827 52.0068L225.304 -2.46924Z" fill="white"/>
</mask>
<g mask="url(#mask8_19_204)">
<path d="M259.348 67.888L246.67 55.2097H228.514V73.366L241.192 86.043C242.439 87.291 244.482 87.292 245.73 86.043L259.348 72.426C260.596 71.178 260.595 69.135 259.348 67.888Z" fill="#F8F8F2"/>
</g>
</g>
</g>
<mask id="mask9_19_204" style="mask-type:luminance" maskUnits="userSpaceOnUse" x="190" y="55" width="33" height="32">
<path d="M190.304 55.1902H222.114V87H190.304V55.1902Z" fill="white"/>
</mask>
<g mask="url(#mask9_19_204)">
<mask id="mask10_19_204" style="mask-type:luminance" maskUnits="userSpaceOnUse" x="170" y="-3" width="110" height="110">
<path d="M225.304 -2.46924L279.78 52.0068L225.304 106.483L170.827 52.0068L225.304 -2.46924Z" fill="white"/>
</mask>
<g mask="url(#mask10_19_204)">
<mask id="mask11_19_204" style="mask-type:luminance" maskUnits="userSpaceOnUse" x="170" y="-3" width="110" height="110">
<path d="M225.304 -2.46924L279.78 52.0068L225.304 106.483L170.827 52.0068L225.304 -2.46924Z" fill="white"/>
</mask>
<g mask="url(#mask11_19_204)">
<path d="M222.094 55.2097H203.938L191.26 67.888C190.013 69.135 190.012 71.178 191.26 72.426L204.878 86.043C206.126 87.292 208.169 87.291 209.416 86.043L222.094 73.366V55.2097Z" fill="#F8F8F2"/>
</g>
</g>
</g>
<path d="M4 88.0001V68.5321L47.276 35.0521H4V16.0801H76.912V35.5481L33.636 69.0281H76.912V88.0001H4ZM105.042 88.0001C101.818 88.0001 98.842 87.1731 96.1136 85.5201C93.3856 83.8671 91.1949 81.6761 89.5416 78.9481C87.8883 76.2201 87.0616 73.2441 87.0616 70.0201V34.0601C87.0616 30.8361 87.8883 27.8601 89.5416 25.1321C91.1949 22.4041 93.3856 20.2134 96.1136 18.5601C98.842 16.9068 101.818 16.0801 105.042 16.0801H141.994C145.3 16.0801 148.318 16.9068 151.046 18.5601C153.774 20.2134 155.923 22.4041 157.494 25.1321C159.147 27.8601 159.974 30.8361 159.974 34.0601V61.5881H106.034V69.0281H159.974V88.0001H105.042ZM106.034 44.9721H141.002V35.0521H106.034V44.9721ZM303.092 113.792V94.6961H345.748V88.0001H309.788C306.481 88.0001 303.464 87.1731 300.736 85.5201C298.008 83.8671 295.817 81.6761 294.164 78.9481C292.511 76.2201 291.684 73.2441 291.684 70.0201V16.3281H310.656V69.0281H345.748V16.3281H364.72V95.8121C364.72 99.1191 363.893 102.136 362.24 104.864C360.669 107.592 358.52 109.741 355.792 111.312C353.064 112.965 350.047 113.792 346.74 113.792H303.092Z" fill="#5B5F75"/>
</g>
<defs>
<filter id="filter0_d_19_204" x="0" y="0" width="368.72" height="119.792" filterUnits="userSpaceOnUse" color-interpolation-filters="sRGB">
<feFlood flood-opacity="0" result="BackgroundImageFix"/>
<feColorMatrix in="SourceAlpha" type="matrix" values="0 0 0 0 0 0 0 0 0 0 0 0 0 0 0 0 0 0 127 0" result="hardAlpha"/>
<feOffset dy="2"/>
<feGaussianBlur stdDeviation="2"/>
<feComposite in2="hardAlpha" operator="out"/>
<feColorMatrix type="matrix" values="0 0 0 0 0.45098 0 0 0 0 0.34902 0 0 0 0 0.972549 0 0 0 0.2 0"/>
<feBlend mode="normal" in2="BackgroundImageFix" result="effect1_dropShadow_19_204"/>
<feBlend mode="normal" in="SourceGraphic" in2="effect1_dropShadow_19_204" result="shape"/>
</filter>
</defs>
</svg>
